<svg width="21" height="20" viewBox="0 0 21 20" fill="none" xmlns="http://www.w3.org/2000/svg">
<path fill-rule="evenodd" clip-rule="evenodd" d="M0.857078 0.760743C0.428242 0.97782 0.206451 1.37849 0.206451 1.93581C0.206451 2.27835 0.672273 2.78671 4.58788 6.71707C7.03725 9.17574 9.14082 11.1894 9.35826 11.2837C9.81912 11.4835 10.5718 11.5022 11.0464 11.3257C11.5429 11.1412 19.9991 2.66138 20.1537 2.19314C20.3941 1.46455 19.7805 0.695112 18.9588 0.695112C18.5513 0.695112 18.2826 0.938055 14.3814 4.83336L10.2367 8.97148L6.09787 4.83553C1.67523 0.415908 1.6212 0.373968 0.857078 0.760743ZM0.628881 8.84324C0.29553 9.17659 0.148797 9.63649 0.2496 10.0321C0.287673 10.1817 2.31957 12.2986 4.76495 14.7362C9.66345 19.6194 9.63408 19.597 10.7521 19.3043C11.2024 19.1864 11.8136 18.623 15.7076 14.7351C20.0747 10.3751 20.1495 10.2922 20.1495 9.81537C20.1495 9.54874 20.0701 9.21708 19.973 9.07845C19.7307 8.73253 19.1374 8.50675 18.7316 8.6061C18.5102 8.66037 17.0168 10.0648 14.3177 12.7572L10.2384 16.8261L6.09461 12.6887L1.95092 8.55147H1.43579C1.0524 8.55147 0.846079 8.62604 0.628881 8.84324Z" fill="#02FE85"/>
</svg>
