<svg width="20" height="21" viewBox="0 0 20 21" fill="none" xmlns="http://www.w3.org/2000/svg">
<path d="M10 20.0054C15.5228 20.0054 20 15.5282 20 10.0054C20 4.48252 15.5228 0.00537109 10 0.00537109C4.47715 0.00537109 0 4.48252 0 10.0054C0 15.5282 4.47715 20.0054 10 20.0054Z" fill="white"/>
<path d="M15.1938 4.81177H4.80647C4.09226 4.81177 3.50806 5.3963 3.50806 6.11018V13.9006C3.50806 14.6145 4.09226 15.1991 4.80647 15.1991H15.1938C15.9076 15.1991 16.4922 14.6145 16.4922 13.9006V6.11018C16.4922 5.3963 15.9076 4.81177 15.1938 4.81177ZM15.1938 13.9006H13.8953V8.18776L10.0001 10.6546L6.10488 8.18776V13.9006H4.80647V6.11018H5.58564L10.0001 8.83696L14.4146 6.11018H15.1938V13.9006Z" fill="#282829"/>
</svg>
