<svg width="10" height="9" viewBox="0 0 10 9" fill="none" xmlns="http://www.w3.org/2000/svg">
<path d="M5.43548 7.6668C5.95804 7.33778 6.45449 6.96903 6.92046 6.56382C8.24743 5.40234 9.02042 4.14987 8.99892 2.87389C8.99234 2.38028 8.79634 1.90808 8.45143 1.55491C8.28113 1.37916 8.07722 1.23946 7.85183 1.14412C7.62644 1.04878 7.38418 0.999739 7.13945 0.999924C6.19347 1.00142 5.48098 1.54191 4.95599 2.70539C4.90149 2.82633 4.80118 2.92066 4.67713 2.96764C4.55308 3.01462 4.41544 3.01039 4.29451 2.95589C4.17357 2.90139 4.07924 2.80108 4.03226 2.67702C3.98528 2.55297 3.98951 2.41534 4.04401 2.2944C4.72 0.795928 5.76648 0.00244207 7.13695 -5.78842e-05C7.51516 -0.000622742 7.88963 0.074763 8.23816 0.221629C8.58669 0.368495 8.90218 0.583851 9.16592 0.854927C9.6902 1.39087 9.98858 2.10773 9.9994 2.85739C10.0269 4.48886 9.10592 5.98083 7.57945 7.31731C6.85761 7.94467 6.06887 8.49062 5.22749 8.94528C5.15705 8.98127 5.07909 9.00003 4.99999 9.00003C4.9209 9.00003 4.84293 8.98127 4.7725 8.94528C4.731 8.92428 4.6585 8.88528 4.559 8.82928C3.78875 8.39366 3.06501 7.88051 2.39904 7.29781C0.885067 5.96633 -0.0264159 4.48036 0.000583572 2.85789C0.0110121 2.10819 0.309034 1.39115 0.833068 0.854927C1.09681 0.583851 1.4123 0.368495 1.76083 0.221629C2.10935 0.074763 2.48382 -0.000622742 2.86203 -5.78842e-05C3.25302 0.000442107 3.61652 0.0684409 3.95001 0.194939C4.07127 0.243844 4.16855 0.338304 4.221 0.458074C4.27345 0.577844 4.27689 0.713395 4.2306 0.835675C4.1843 0.957955 4.09195 1.05723 3.97333 1.11224C3.85471 1.16724 3.71926 1.17359 3.59602 1.12992C3.36046 1.0422 3.11089 0.998147 2.85953 0.999924C2.61472 0.999672 2.37236 1.04868 2.14689 1.14402C1.92141 1.23937 1.71742 1.3791 1.54706 1.55491C1.20215 1.90808 1.00614 2.38028 0.999565 2.87389C0.978066 4.14287 1.74305 5.38934 3.05853 6.54682C3.65808 7.07086 4.30827 7.53396 4.99949 7.9293C5.13249 7.8533 5.27899 7.7653 5.43548 7.6668V7.6668Z" fill="white"/>
</svg>
