<svg width="15" height="16" viewBox="0 0 15 16" fill="none" xmlns="http://www.w3.org/2000/svg">
<path fill-rule="evenodd" clip-rule="evenodd" d="M2.59655 0.0397262C2.2329 0.118847 2.16284 0.173722 1.21242 1.12444C0.383024 1.9541 0.31888 2.02583 0.221576 2.23221C0.0612452 2.57232 0.0212288 2.7571 0.00386878 3.23798C-0.0136678 3.72356 0.0259955 4.0444 0.172673 4.60292C1.0563 7.96774 5.01701 12.3932 8.80786 14.2513C9.93203 14.8024 10.7808 15.0421 11.6178 15.0449C12.1302 15.0466 12.3893 14.9947 12.7444 14.8196C12.973 14.7068 13.0331 14.6533 13.8585 13.8288C14.7827 12.9054 14.838 12.8356 14.9541 12.4443C15.0153 12.2383 15.0153 11.8519 14.9541 11.6458C14.8488 11.2909 14.8059 11.2393 13.637 10.0635C13.02 9.44296 12.4358 8.87867 12.3387 8.80956C11.7549 8.39394 11.0053 8.45159 10.517 8.94961C10.3693 9.10032 10.3124 9.18856 10.2103 9.4256C10.1414 9.58564 10.0492 9.76509 10.0055 9.82435C9.72432 10.2053 9.18139 10.4479 8.71959 10.3989C8.0311 10.3258 7.00388 9.70378 6.13373 8.83292C5.08033 7.77866 4.45902 6.56567 4.61055 5.85914C4.68111 5.53015 4.91206 5.18589 5.1852 5.0025C5.25187 4.95774 5.39249 4.88445 5.49768 4.83966C5.80327 4.70946 5.87845 4.66677 6.0203 4.54287C6.50992 4.11516 6.61708 3.31466 6.2607 2.74713C6.1558 2.58012 4.12691 0.52722 3.87937 0.337642C3.68202 0.186492 3.42301 0.0700915 3.18985 0.0277212C2.96897 -0.0124129 2.82255 -0.00944106 2.59655 0.0397262Z" fill="#282829"/>
</svg>
