<svg width="159" height="152" viewBox="0 0 159 152" fill="none" xmlns="http://www.w3.org/2000/svg">
<path fill-rule="evenodd" clip-rule="evenodd" d="M76.547 0.420334C74.5464 0.948646 72.6494 2.01855 71.2654 3.4C70.0072 4.65579 68.6098 7.28438 60.6083 23.4475C54.1044 36.5849 51.1501 42.245 50.5514 42.715C50.0852 43.0809 49.2008 43.5184 48.5858 43.6867C47.9708 43.8553 38.7297 45.2528 28.0504 46.7923C17.3711 48.3316 8.18321 49.7464 7.63286 49.9363C1.93915 51.9001 -1.31095 58.4232 0.592216 64.0679C0.964372 65.1718 1.70992 66.6385 2.24913 67.327C2.78834 68.0156 9.49395 74.6731 17.1505 82.1213C24.8071 89.5696 31.415 96.1384 31.8348 96.7186C32.4306 97.5424 32.5893 98.1235 32.5587 99.3701C32.537 100.248 31.0348 109.512 29.2207 119.956C25.5458 141.109 25.4865 141.794 27.0351 145.062C29.354 149.954 35.6606 152.667 40.725 150.95C41.5377 150.675 50.1388 146.268 59.8386 141.157C76.7697 132.236 77.5431 131.864 79.1765 131.864C80.8118 131.863 81.5771 132.231 98.8504 141.332C108.735 146.54 117.466 150.962 118.253 151.16C120.587 151.747 123.897 151.412 125.972 150.38C128.126 149.309 130.617 146.766 131.49 144.748C132.826 141.655 132.731 140.672 128.997 119.098C125.201 97.1716 125.265 97.9929 127.204 95.83C127.757 95.2124 134.265 88.8251 141.667 81.6356C149.068 74.4461 155.565 68.0039 156.104 67.3193C160.639 61.5628 157.787 52.3737 150.706 49.9313C150.148 49.7386 140.96 48.3235 130.288 46.7862C119.617 45.2491 110.382 43.8537 109.767 43.6857C109.152 43.5178 108.269 43.0821 107.805 42.7174C107.211 42.2512 104.232 36.5432 97.7491 23.4509C87.5935 2.94055 87.4902 2.77504 83.8784 1.1759C81.9889 0.339435 78.2958 -0.0409743 76.547 0.420334Z" fill="#EFEFEF"/>
</svg>
