<svg width="21" height="19" viewBox="0 0 21 19" fill="none" xmlns="http://www.w3.org/2000/svg">
<path fill-rule="evenodd" clip-rule="evenodd" d="M19.7258 18.7885C20.1547 18.5714 20.3765 18.1707 20.3765 17.6134C20.3765 17.2708 19.9106 16.7625 15.995 12.8321C13.5457 10.3734 11.4421 8.3598 11.2247 8.26553C10.7638 8.06573 10.0112 8.047 9.53651 8.22347C9.03999 8.40803 0.583769 16.8878 0.42918 17.3561C0.188776 18.0846 0.80242 18.8541 1.62407 18.8541C2.03164 18.8541 2.30032 18.6111 6.20155 14.7158L10.3462 10.5777L14.485 14.7137C18.9077 19.1333 18.9617 19.1752 19.7258 18.7885ZM19.954 10.706C20.2874 10.3726 20.4341 9.9127 20.3333 9.51711C20.2952 9.36747 18.2633 7.25061 15.818 4.81296C10.9195 -0.0701865 10.9488 -0.0478221 9.83082 0.244918C9.38047 0.362763 8.76937 0.926241 4.87527 4.81405C0.508228 9.17408 0.433411 9.257 0.433411 9.73382C0.433411 10.0005 0.51282 10.3321 0.609876 10.4707C0.852214 10.8167 1.44555 11.0424 1.8513 10.9431C2.07273 10.8888 3.56616 9.48435 6.26524 6.79204L10.3445 2.72305L14.4883 6.86045L18.632 10.9977H19.1471C19.5305 10.9977 19.7368 10.9232 19.954 10.706Z" fill="#02FE85"/>
</svg>
