<svg width="16" height="17" viewBox="0 0 16 17" fill="none" xmlns="http://www.w3.org/2000/svg">
<path d="M7.26517 14.5887V10.7509L7.99241 10.87L8.71964 10.7509V14.5887H7.26517Z" fill="white"/>
<path d="M3.00259 1.4801C3.00259 1.4801 0.490891 0.224252 0.500058 2.68401C0.500058 2.68401 0.475613 4.85654 1.89341 6.63796C1.89341 6.63796 2.99954 8.20854 4.9154 8.80744C4.9154 8.80744 4.38373 7.98853 4.11789 7.36519C4.11789 7.36519 2.3762 6.37518 1.7498 4.33404C1.7498 4.33404 0.643671 1.53205 2.99954 2.52818V1.4801H3.00259Z" fill="white"/>
<path d="M7.99242 10.87C9.25438 10.87 10.3025 9.73022 10.3025 9.73022C11.6011 8.41937 12.31 6.19489 12.31 6.19489C13.2358 3.7718 12.8967 0.0256348 12.8967 0.0256348H7.99242H3.08512C3.08512 0.0256348 2.74901 3.7718 3.67486 6.19489C3.67486 6.19489 4.38376 8.42243 5.68239 9.73022C5.68239 9.73022 6.73046 10.87 7.99242 10.87Z" fill="white"/>
<path d="M12.9976 1.4801C12.9976 1.4801 15.5093 0.224252 15.5001 2.68401C15.5001 2.68401 15.5245 4.85654 14.1067 6.63796C14.1067 6.63796 13.0006 8.20854 11.0848 8.80744C11.0848 8.80744 11.6164 7.98853 11.8823 7.36519C11.8823 7.36519 13.624 6.37518 14.2504 4.33404C14.2504 4.33404 15.3565 1.53205 13.0006 2.52818V1.4801H12.9976Z" fill="white"/>
<path d="M12.359 15.0592H3.623V16.3303H12.359V15.0592Z" fill="white"/>
<path d="M9.4898 14.5886H6.49532V15.0592H9.4898V14.5886Z" fill="white"/>
</svg>
