<svg width="16" height="16" viewBox="0 0 16 16" fill="none" xmlns="http://www.w3.org/2000/svg">
<path fill-rule="evenodd" clip-rule="evenodd" d="M3.53281 0.129342C3.03499 0.188693 2.44862 0.406239 2.01739 0.691583C1.63467 0.944829 1.22322 1.38859 0.973963 1.81705C0.666083 2.34618 0.547573 2.81432 0.519778 3.61094L0.500015 4.17672H8.00002H15.5L15.4821 3.62688C15.4584 2.89624 15.3688 2.49337 15.1197 1.99616C14.9541 1.66571 14.7991 1.44625 14.5379 1.1721C14.0469 0.656807 13.5071 0.351956 12.7655 0.17113C12.5613 0.121373 12.1684 0.116209 8.14361 0.110408C5.72431 0.106902 3.64944 0.115413 3.53281 0.129342ZM0.518152 8.83842C0.529276 12.0679 0.530743 12.1347 0.597297 12.406C0.955539 13.8665 2.11712 14.8882 3.60144 15.0484C3.79852 15.0697 5.41232 15.0772 8.2233 15.0699C12.5028 15.0588 12.5448 15.0581 12.8133 14.9909C13.4679 14.8272 13.9462 14.5705 14.4036 14.1376C14.7286 13.8301 14.9252 13.561 15.1258 13.1495C15.3138 12.7639 15.4118 12.4314 15.4592 12.0179C15.4773 11.8602 15.4904 10.4521 15.4905 8.64717L15.4908 5.54734H7.99877H0.506805L0.518152 8.83842ZM6.95997 7.66644C7.2186 7.7906 7.36513 8.11467 7.29883 8.41592C7.26195 8.58361 7.23747 8.61434 6.74692 9.10936L6.23364 9.62732L6.7474 10.1453C7.18332 10.5848 7.26683 10.6846 7.29874 10.8044C7.35034 10.9983 7.31445 11.1911 7.19352 11.3694C7.07497 11.5442 6.91018 11.6393 6.68907 11.6605C6.39314 11.689 6.33369 11.6457 5.4608 10.7667C4.69647 9.99695 4.66007 9.95474 4.62249 9.79467C4.59135 9.66207 4.59135 9.59258 4.62249 9.45998C4.66004 9.30019 4.69724 9.25684 5.44645 8.50001C5.93854 8.00288 6.27864 7.68458 6.35862 7.64627C6.51535 7.5712 6.78004 7.5801 6.95997 7.66644ZM9.64173 7.64805C9.72406 7.68633 10.0471 7.98809 10.5539 8.50001C11.3031 9.25684 11.3403 9.30019 11.3779 9.45998C11.409 9.59258 11.409 9.66207 11.3779 9.79467C11.3403 9.95474 11.3039 9.99695 10.5396 10.7667C9.66666 11.6457 9.60721 11.689 9.31128 11.6605C9.09017 11.6393 8.92537 11.5442 8.80683 11.3694C8.6859 11.1911 8.65001 10.9983 8.70161 10.8044C8.73352 10.6846 8.81703 10.5848 9.25295 10.1453L9.76671 9.62732L9.25295 9.10936C8.81566 8.66846 8.73358 8.57026 8.70136 8.44929C8.61106 8.11024 8.80326 7.74272 9.13173 7.62628C9.28059 7.5735 9.50177 7.58293 9.64173 7.64805Z" fill="white"/>
</svg>
