<svg width="29" height="29" viewBox="0 0 29 29" fill="none" xmlns="http://www.w3.org/2000/svg">
<path fill-rule="evenodd" clip-rule="evenodd" d="M13.38 0.126455C10.618 0.362276 8.06757 1.36061 5.84388 3.07632C5.29015 3.50354 4.0141 4.76355 3.58841 5.30338C1.9743 7.35028 1.01822 9.54498 0.629299 12.0959C0.405625 13.5629 0.47715 15.5878 0.805124 17.0746C1.26327 19.1515 2.2234 21.1634 3.56582 22.8598C3.98231 23.3861 5.20465 24.6085 5.72621 25.0203C7.42225 26.3595 9.33293 27.2797 11.4069 27.7563C13.3028 28.1919 15.5985 28.2031 17.4845 27.7858C19.5694 27.3246 21.5831 26.3646 23.273 25.0265C23.8106 24.6007 25.0326 23.3805 25.4428 22.8598C27.0419 20.8301 28.0553 18.4496 28.4045 15.9029C28.5318 14.9748 28.5318 13.2158 28.4045 12.2877C27.595 6.38427 23.2772 1.68391 17.4907 0.407029C16.3052 0.145408 14.556 0.0260467 13.38 0.126455ZM15.6705 7.16535C18.0908 7.5872 20.0916 9.21253 20.985 11.4826C21.351 12.4125 21.4327 12.8793 21.4327 14.0405C21.4327 14.8893 21.4133 15.1367 21.3132 15.5636C20.6595 18.353 18.4416 20.4399 15.6198 20.9206C15.2144 20.9897 14.8845 21.0045 14.2339 20.9828C13.2822 20.951 12.6973 20.8296 11.8411 20.4859L11.3686 20.2964L9.66436 20.7017C8.72708 20.9246 7.89043 21.1069 7.8052 21.1069C7.49307 21.1069 7.49745 21.0137 7.90144 19.0384L8.27135 17.2301L8.06724 16.7263C7.70583 15.8342 7.58915 15.2747 7.55829 14.287C7.52776 13.3109 7.59715 12.7539 7.84905 11.9515C8.62305 9.48609 10.7337 7.63195 13.2936 7.16869C13.8604 7.06609 15.091 7.0644 15.6705 7.16535ZM13.5576 8.70046C10.8451 9.21422 8.95481 11.5814 9.09632 14.287C9.13748 15.0745 9.29215 15.6838 9.6329 16.401L9.91012 16.9844L9.68919 18.0449C9.56768 18.6281 9.47741 19.1145 9.48864 19.1257C9.49988 19.137 9.98011 19.0329 10.5559 18.8944L11.6028 18.6427L12.0256 18.8549C13.8543 19.7728 16.0159 19.6173 17.6551 18.4496C18.0332 18.1803 18.7357 17.4694 18.9807 17.1081C19.4546 16.4094 19.7906 15.4827 19.8889 14.6035C20.1008 12.7081 19.2174 10.7431 17.6513 9.62616C17.1814 9.29102 16.3715 8.91771 15.8166 8.78049C15.2014 8.62837 14.1373 8.59068 13.5576 8.70046ZM12.5118 10.7797C12.6458 10.8736 13.2978 12.3134 13.2978 12.5156C13.2978 12.5922 13.1904 12.7941 13.0527 12.9765C12.9107 13.1644 12.8069 13.3612 12.806 13.444C12.8007 13.9636 14.7796 15.7386 15.3641 15.7386C15.5082 15.7386 15.6139 15.6761 15.8738 15.4374C16.277 15.0669 16.3069 15.0651 17.2988 15.3538C18.0584 15.5749 18.1942 15.6568 18.2643 15.9358C18.3425 16.2474 17.6972 17.0642 17.1955 17.2888C16.8376 17.449 16.102 17.4798 15.5837 17.3563C15.047 17.2284 14.3027 16.8663 13.7103 16.4447C13.0362 15.965 12.079 15.0021 11.685 14.4074C11.218 13.7024 11.0373 13.2077 11.0075 12.5525C10.9857 12.0726 10.9966 11.9947 11.1234 11.7178C11.2057 11.538 11.4064 11.2658 11.6115 11.0558C11.925 10.7346 11.9815 10.699 12.1781 10.699C12.2982 10.699 12.4484 10.7354 12.5118 10.7797Z" fill="#02FE85"/>
</svg>
