<svg width="20" height="22" viewBox="0 0 20 22" fill="none" xmlns="http://www.w3.org/2000/svg">
<path fill-rule="evenodd" clip-rule="evenodd" d="M9.20003 1.01968C7.22712 1.18821 5.40541 1.9017 3.81706 3.12788C3.42154 3.43321 2.51007 4.33371 2.206 4.71952C1.05307 6.1824 0.370157 7.7509 0.0923561 9.57398C-0.0674104 10.6224 -0.0163212 12.0696 0.217946 13.1321C0.545191 14.6165 1.231 16.0544 2.18987 17.2667C2.48737 17.6428 3.36046 18.5165 3.73301 18.8108C4.94447 19.7679 6.30924 20.4255 7.79067 20.7661C9.14487 21.0775 10.7846 21.0854 12.1318 20.7872C13.621 20.4576 15.0594 19.7716 16.2664 18.8152C16.6505 18.5109 17.5233 17.6388 17.8163 17.2667C18.9585 15.8161 19.6824 14.1148 19.9318 12.2948C20.0227 11.6314 20.0227 10.3744 19.9318 9.71104C19.3536 5.49201 16.2694 2.13276 12.1362 1.2202C11.2894 1.03322 10.04 0.947918 9.20003 1.01968ZM10.8361 6.05023C12.5648 6.35172 13.994 7.5133 14.6322 9.13571C14.8936 9.80022 14.9519 10.1338 14.9519 10.9638C14.9519 11.5704 14.9381 11.7472 14.8666 12.0523C14.3997 14.0458 12.8154 15.5373 10.7998 15.8808C10.5103 15.9302 10.2747 15.9408 9.80993 15.9253C9.13011 15.9026 8.71235 15.8158 8.10077 15.5702L7.76326 15.4347L6.54597 15.7243C5.87648 15.8836 5.27888 16.014 5.218 16.014C4.99505 16.014 4.99818 15.9473 5.28675 14.5357L5.55096 13.2433L5.40517 12.8832C5.14702 12.2457 5.06368 11.8458 5.04164 11.1399C5.01983 10.4423 5.06939 10.0442 5.24932 9.47078C5.80218 7.70881 7.3098 6.3837 9.13825 6.05262C9.54317 5.97929 10.4221 5.97808 10.8361 6.05023ZM9.32687 7.14734C7.38935 7.51452 6.03915 9.20626 6.14023 11.1399C6.16963 11.7027 6.28011 12.1382 6.5235 12.6507L6.72151 13.0677L6.5637 13.8256C6.47691 14.2424 6.41243 14.59 6.42046 14.5981C6.42848 14.6061 6.77151 14.5317 7.1828 14.4327L7.93055 14.2528L8.23254 14.4045C9.53878 15.0605 11.0828 14.9494 12.2536 14.1149C12.5237 13.9224 13.0255 13.4143 13.2005 13.1561C13.539 12.6568 13.779 11.9944 13.8492 11.3661C14.0006 10.0115 13.3696 8.60716 12.2509 7.80891C11.9153 7.5694 11.3368 7.3026 10.9404 7.20453C10.501 7.09582 9.74091 7.06888 9.32687 7.14734ZM8.57983 8.63335C8.67559 8.70041 9.14131 9.72944 9.14131 9.87394C9.14131 9.92871 9.06457 10.073 8.96619 10.2033C8.8648 10.3376 8.79061 10.4783 8.79002 10.5374C8.78622 10.9088 10.1997 12.1774 10.6172 12.1774C10.7201 12.1774 10.7957 12.1327 10.9813 11.9621C11.2693 11.6973 11.2907 11.696 11.9992 11.9024C12.5417 12.0603 12.6387 12.1189 12.6888 12.3183C12.7446 12.541 12.2837 13.1247 11.9254 13.2853C11.6697 13.3998 11.1443 13.4218 10.774 13.3335C10.3907 13.2421 9.8591 12.9833 9.43594 12.682C8.95445 12.3391 8.27071 11.651 7.98927 11.2259C7.65568 10.7221 7.52665 10.3685 7.50539 9.90033C7.48981 9.55734 7.49756 9.50163 7.58811 9.30378C7.64695 9.17525 7.79028 8.98076 7.93677 8.83062C8.16074 8.60109 8.20107 8.57568 8.34153 8.57568C8.42731 8.57568 8.53454 8.60164 8.57983 8.63335Z" fill="white"/>
</svg>
